<?xml version="1.0" encoding="UTF-8"?>
<svg xmlns="http://www.w3.org/2000/svg" width="1254" height="1254" viewBox="0 0 1254 1254">
  <title>Spread palm one-line precise</title>
  <desc>Open hand outline as a single stroked path.</desc>
  <rect width="100%" height="100%" fill="#ffffff"/>
  <path d="M 665.0 136.0 L 680.0 142.0 L 687.0 149.0 L 693.0 160.0 L 697.0 181.0 L 696.0 357.0 L 693.0 454.0 L 693.0 516.0 L 695.0 522.0 L 699.0 527.0 L 709.0 531.0 L 720.0 529.0 L 726.0 523.0 L 729.0 517.0 L 766.0 404.0 L 812.0 274.0 L 817.0 256.0 L 829.0 232.0 L 836.0 225.0 L 849.0 219.0 L 865.0 219.0 L 878.0 225.0 L 885.0 232.0 L 889.0 240.0 L 891.0 249.0 L 891.0 267.0 L 873.0 338.0 L 857.0 393.0 L 857.0 397.0 L 814.0 549.0 L 814.0 567.0 L 818.0 576.0 L 826.0 582.0 L 835.0 583.0 L 845.0 580.0 L 853.0 572.0 L 914.0 490.0 L 970.0 407.0 L 984.0 389.0 L 991.0 384.0 L 1002.0 380.0 L 1011.0 380.0 L 1017.0 382.0 L 1029.0 391.0 L 1033.0 400.0 L 1034.0 412.0 L 1030.0 429.0 L 1013.0 462.0 L 956.0 565.0 L 920.0 623.0 L 907.0 651.0 L 896.0 692.0 L 881.0 782.0 L 864.0 854.0 L 848.0 897.0 L 831.0 929.0 L 804.0 968.0 L 799.0 979.0 L 794.0 996.0 L 792.0 1010.0 L 791.0 1116.0 L 785.0 1119.0 L 515.0 1119.0 L 511.0 1118.0 L 508.0 1114.0 L 507.0 1018.0 L 503.0 996.0 L 497.0 981.0 L 484.0 966.0 L 461.0 949.0 L 360.0 846.0 L 344.0 824.0 L 306.0 756.0 L 280.0 719.0 L 265.0 701.0 L 245.0 681.0 L 225.0 665.0 L 194.0 644.0 L 189.0 634.0 L 189.0 624.0 L 193.0 614.0 L 201.0 605.0 L 213.0 598.0 L 222.0 595.0 L 233.0 593.0 L 258.0 593.0 L 274.0 596.0 L 298.0 606.0 L 321.0 622.0 L 346.0 646.0 L 374.0 679.0 L 394.0 699.0 L 406.0 708.0 L 421.0 716.0 L 436.0 720.0 L 453.0 719.0 L 459.0 716.0 L 464.0 711.0 L 470.0 698.0 L 477.0 648.0 L 479.0 625.0 L 479.0 589.0 L 477.0 571.0 L 468.0 530.0 L 445.0 449.0 L 397.0 268.0 L 395.0 257.0 L 395.0 238.0 L 398.0 228.0 L 408.0 215.0 L 420.0 208.0 L 431.0 205.0 L 441.0 205.0 L 454.0 210.0 L 464.0 219.0 L 475.0 239.0 L 484.0 270.0 L 523.0 385.0 L 564.0 513.0 L 571.0 523.0 L 580.0 526.0 L 588.0 525.0 L 593.0 522.0 L 596.0 518.0 L 599.0 505.0 L 603.0 382.0 L 617.0 175.0 L 625.0 154.0 L 635.0 143.0 L 648.0 137.0 Z" fill="none" stroke="#000000" stroke-width="7" stroke-linecap="round" stroke-linejoin="round"/>
</svg>