<svg width="30" height="30" viewBox="0 0 30 30" fill="none" xmlns="http://www.w3.org/2000/svg">
<rect x="0.5" y="0.5" width="29" height="29" fill="#ECECEC"/>
<rect x="0.5" y="0.5" width="29" height="29" stroke="black"/>
<path d="M26 26V21L21 26H26Z" fill="#0D0D0D"/>
<path d="M26 26V21L21 26H26Z" fill="#0D0D0D"/>
<path d="M8.12132 20.1421L10.2426 22.2634L8.12132 24.3847L6 22.2634L8.12132 20.1421ZM8.12132 22.9705L8.82843 22.2634L8.12132 21.5563L7.41421 22.2634L8.12132 22.9705Z" fill="#0D0D0D"/>
<path d="M22.1213 6.00002L24.2426 8.12134L22.1213 10.2427L20 8.12134L22.1213 6.00002ZM22.1213 8.82844L22.8284 8.12134L22.1213 7.41423L21.4142 8.12134L22.1213 8.82844Z" fill="#0D0D0D"/>
<path d="M9.60303 21.261L9.25537 21.6086L8.54834 20.9016L8.896 20.554L9.60303 21.261ZM10.9917 19.8723L10.2974 20.5666L9.59033 19.8596L10.2847 19.1653L10.9917 19.8723ZM12.3804 18.4836L11.686 19.178L10.979 18.4709L11.6733 17.7766L12.3804 18.4836ZM13.769 17.095L13.0747 17.7893L12.3677 17.0823L13.062 16.3879L13.769 17.095ZM15.1577 15.7063L14.4634 16.4006L13.7563 15.6936L14.4507 14.9993L15.1577 15.7063ZM16.5474 14.3167L15.853 15.011L15.146 14.304L15.8403 13.6096L16.5474 14.3167ZM17.936 12.928L17.2417 13.6223L16.5347 12.9153L17.229 12.2209L17.936 12.928ZM19.3247 11.5393L18.6304 12.2336L17.9233 11.5266L18.6177 10.8323L19.3247 11.5393ZM20.7134 10.1506L20.019 10.845L19.312 10.1379L20.0063 9.4436L20.7134 10.1506ZM21.7554 9.10864L21.4077 9.4563L20.7007 8.74927L21.0483 8.40161L21.7554 9.10864Z" fill="black"/>
<path d="M4.22226 10.9565L3.91955 4.65274C3.89879 4.22037 4.4006 3.96799 4.73575 4.24223L9.66237 8.27345C9.99685 8.54714 9.8496 9.08732 9.42242 9.1537L7.06462 9.52008C6.96413 9.5357 6.8708 9.58156 6.79707 9.65155L5.06606 11.2948C4.75582 11.5893 4.24277 11.3837 4.22226 10.9565Z" fill="#0D0D0D"/>
<path d="M19.3433 14.8431C19.3433 17.3284 17.3285 19.3431 14.8433 19.3431C12.358 19.3431 10.3433 17.3284 10.3433 14.8431C10.3433 12.3579 12.358 10.3431 14.8433 10.3431C17.3285 10.3431 19.3433 12.3579 19.3433 14.8431Z" fill="#0D0D0D"/>
<path d="M15.3433 17.2577L14.3433 17.2577L14.3433 12.2577L15.3433 12.2577L15.3433 17.2577Z" fill="white"/>
<path d="M17.3433 14.2577V15.2577H12.3433V14.2577H17.3433Z" fill="white"/>
</svg>
