<svg width="20" height="20" viewBox="0 0 20 20" fill="none" xmlns="http://www.w3.org/2000/svg">
<path d="M4.07031 15.9297L16 4" stroke="#0D0D0D" stroke-linejoin="round" stroke-dasharray="1 1"/>
<path d="M13 10C13 11.6569 11.6569 13 10 13C8.34315 13 7 11.6569 7 10C7 8.34315 8.34315 7 10 7C11.6569 7 13 8.34315 13 10Z" fill="#0D0D0D"/>
<line x1="10" y1="8" x2="10" y2="12" stroke="white"/>
<line x1="8" y1="10" x2="12" y2="10" stroke="white"/>
<rect y="-0.707107" width="1" height="1" transform="matrix(0.707107 -0.707107 -0.707107 -0.707107 3.91406 15.8213)" fill="#0D0D0D" stroke="#0D0D0D"/>
<rect x="14.9073" y="4.41418" width="1" height="1" transform="rotate(-45 14.9073 4.41418)" fill="#0D0D0D" stroke="#0D0D0D"/>
<path d="M2.96798 7.34559L2.79218 3.68191C2.77142 3.24922 3.27323 2.99665 3.60839 3.27109L6.46733 5.61219C6.80181 5.88608 6.65456 6.42667 6.22738 6.4931L4.99236 6.68516C4.89187 6.70078 4.79854 6.74668 4.72481 6.81672L3.81179 7.68412C3.50154 7.97886 2.98849 7.77303 2.96798 7.34559Z" fill="#0D0D0D"/>
</svg>
