<svg width="20" height="20" viewBox="0 0 20 20" fill="none" xmlns="http://www.w3.org/2000/svg">
<path d="M16.4645 5.4707C16.4645 5.4707 17.2135 12.4707 11.9648 12.4707C6.71617 12.4707 5.46484 16.4707 5.46484 16.4707" stroke="#0D0D0D" stroke-linejoin="bevel" stroke-dasharray="1 1"/>
<rect x="4.96484" y="15.9707" width="1" height="1" fill="#0D0D0D" stroke="#0D0D0D"/>
<rect x="15.9648" y="4.9707" width="1" height="1" fill="#0D0D0D" stroke="#0D0D0D"/>
<circle cx="11.9648" cy="12.4706" r="1" fill="#0D0D0D" stroke="#0D0D0D"/>
<path d="M3.43282 6.31629L3.25703 2.65261C3.23626 2.21992 3.73807 1.96735 4.07323 2.2418L6.93217 4.5829C7.26665 4.85679 7.1194 5.39738 6.69223 5.46381L5.4572 5.65586C5.35672 5.67149 5.26338 5.71738 5.18965 5.78743L4.27663 6.65483C3.96638 6.94957 3.45333 6.74373 3.43282 6.31629Z" fill="#0D0D0D"/>
</svg>
