<svg width="30" height="30" viewBox="0 0 30 30" fill="none" xmlns="http://www.w3.org/2000/svg">
<rect x="0.5" y="0.5" width="29" height="29" fill="#ECECEC"/>
<rect x="0.5" y="0.5" width="29" height="29" stroke="black"/>
<path d="M26 26V21L21 26H26Z" fill="#0D0D0D"/>
<path d="M26 26V21L21 26H26Z" fill="#0D0D0D"/>
<path d="M4.22226 10.9618L3.91955 4.65323C3.89879 4.22054 4.4006 3.96797 4.73575 4.24242L9.66237 8.27667C9.99685 8.55056 9.8496 9.09115 9.42242 9.15758L7.06462 9.52423C6.96413 9.53986 6.8708 9.58576 6.79707 9.6558L5.06606 11.3003C4.75582 11.595 4.24277 11.3892 4.22226 10.9618Z" fill="#0D0D0D"/>
<path d="M22.4931 8C22.4931 8 22.9926 15 15.5 15C8.00744 15 8.50691 22 8.50691 22" stroke="#0D0D0D" stroke-linejoin="bevel" stroke-dasharray="1 1"/>
<path d="M7 21L10 21L10 24L7 24L7 21ZM9 23L9 22L8 22L8 23L9 23Z" fill="#0D0D0D"/>
<path d="M21 6L24 6L24 9L21 9L21 6ZM23 8L23 7L22 7L22 8L23 8Z" fill="#0D0D0D"/>
<circle cx="15.5" cy="15.5" r="2.5" fill="#0D0D0D"/>
</svg>
