<svg width="29" height="29" viewBox="0 0 29 29" fill="none" xmlns="http://www.w3.org/2000/svg">
<g clip-path="url(#clip0_2788_1600)">
<rect width="29" height="29" fill="white"/>
<rect opacity="0.5" width="29" height="29" fill="white"/>
<path d="M14.4068 20.0314C15.3715 20.2866 16.4523 21.2317 18.7092 18.9748C20.8787 16.8052 22.0316 11.1794 22.3394 9.47056C22.3959 9.15696 22.2915 8.83795 22.0661 8.6127L21.6651 8.21201C21.4251 7.97215 21.0803 7.87078 20.7476 7.93764C17.8379 8.52238 13.6983 9.12296 11.2778 11.5434C8.70546 14.1158 10.1106 15.1579 10.1409 16.1102L9.13313 17.118C8.74261 17.5085 8.74261 18.1417 9.13313 18.5322L11.5841 20.9832C11.9746 21.3737 12.6078 21.3737 12.9983 20.9832L13.7192 20.2623C13.9032 20.0783 14.1552 19.9648 14.4068 20.0314Z" stroke="black" stroke-linecap="round" stroke-linejoin="round"/>
<path d="M17.2138 13.0883C16.3042 12.1787 14.829 12.1782 13.9193 13.0876C13.0096 13.9973 13.0096 15.4731 13.9193 16.3828C14.829 17.2923 16.3042 17.2918 17.2138 16.3822C18.1232 15.4725 18.1232 13.998 17.2138 13.0883Z" stroke="black"/>
<line x1="0.5" y1="-0.5" x2="6.7758" y2="-0.5" transform="matrix(-0.707107 0.707107 0.707107 0.707107 22.4253 8.44727)" stroke="black" stroke-linecap="round"/>
<path d="M26 25L26 20L21 25L26 25Z" fill="#D9D9D9"/>
<path d="M26 25L26 20L21 25L26 25Z" fill="black"/>
<path d="M4.35661 10.4319L4.0539 4.12331C4.03314 3.69062 4.53495 3.43805 4.8701 3.7125L9.79672 7.74675C10.1312 8.02064 9.98395 8.56123 9.55677 8.62766L7.19897 8.99432C7.09848 9.00994 7.00515 9.05584 6.93142 9.12588L5.20041 10.7704C4.89017 11.0651 4.37712 10.8593 4.35661 10.4319Z" fill="#141414"/>
</g>
<rect x="0.5" y="0.5" width="28" height="28" stroke="#B3B3B3"/>
<defs>
<clipPath id="clip0_2788_1600">
<rect width="29" height="29" fill="white"/>
</clipPath>
</defs>
</svg>
