<svg width="29" height="29" viewBox="0 0 29 29" fill="none" xmlns="http://www.w3.org/2000/svg">
<g clip-path="url(#clip0_2790_1796)">
<rect width="29" height="29" fill="#ECECEC"/>
<rect opacity="0.5" width="29" height="29" fill="white"/>
<path d="M14.4073 20.0314C15.372 20.2866 16.4528 21.2317 18.7097 18.9748C20.8792 16.8052 22.0321 11.1794 22.3399 9.47056C22.3964 9.15696 22.292 8.83795 22.0666 8.6127L21.6656 8.21201C21.4256 7.97215 21.0808 7.87078 20.7481 7.93764C17.8384 8.52238 13.6988 9.12296 11.2783 11.5434C8.70595 14.1158 10.111 15.1579 10.1414 16.1102L9.13362 17.118C8.74309 17.5085 8.74309 18.1417 9.13362 18.5322L11.5846 20.9832C11.9751 21.3737 12.6083 21.3737 12.9988 20.9832L13.7197 20.2623C13.9037 20.0783 14.1557 19.9648 14.4073 20.0314Z" stroke="black" stroke-linecap="round" stroke-linejoin="round"/>
<path d="M17.2143 13.0883C16.3047 12.1787 14.8295 12.1782 13.9198 13.0876C13.0101 13.9973 13.0101 15.4731 13.9198 16.3828C14.8295 17.2923 16.3047 17.2918 17.2143 16.3822C18.1237 15.4725 18.1237 13.998 17.2143 13.0883Z" stroke="black"/>
<line x1="0.5" y1="-0.5" x2="6.7758" y2="-0.5" transform="matrix(-0.707107 0.707107 0.707107 0.707107 22.4258 8.44727)" stroke="black" stroke-linecap="round"/>
<path d="M26 25L26 20L21 25L26 25Z" fill="#D9D9D9"/>
<path d="M26 25L26 20L21 25L26 25Z" fill="black"/>
<path d="M4.35661 10.4319L4.0539 4.12331C4.03314 3.69062 4.53495 3.43805 4.8701 3.7125L9.79672 7.74675C10.1312 8.02064 9.98395 8.56123 9.55677 8.62766L7.19897 8.99432C7.09848 9.00994 7.00515 9.05584 6.93142 9.12588L5.20041 10.7704C4.89017 11.0651 4.37712 10.8593 4.35661 10.4319Z" fill="#141414"/>
</g>
<rect x="0.5" y="0.5" width="28" height="28" stroke="black"/>
<defs>
<clipPath id="clip0_2790_1796">
<rect width="29" height="29" fill="white"/>
</clipPath>
</defs>
</svg>
