<svg width="30" height="30" viewBox="0 0 30 30" fill="none" xmlns="http://www.w3.org/2000/svg">
<path d="M15.4005 21.9315C16.5452 22.2015 17.8055 23.403 20.4951 20.7134C23.0695 18.139 24.419 11.4004 24.7536 9.51745C24.8093 9.20372 24.7041 8.88926 24.4787 8.66401L23.8847 8.0704C23.6447 7.83053 23.3006 7.72902 22.968 7.79636C19.5634 8.48566 14.6643 9.17466 11.8103 12.0286C8.80406 15.0349 10.4461 16.2528 10.4817 17.3657L9.18459 18.6627C8.79407 19.0533 8.79407 19.6864 9.18459 20.077L12.2875 23.1799C12.6781 23.5704 13.3112 23.5704 13.7017 23.1799L14.7119 22.1698C14.8959 21.9858 15.1472 21.8718 15.4005 21.9315Z" fill="white" stroke="#0D0D0D" stroke-linecap="round" stroke-linejoin="round"/>
<path d="M18.8071 13.7743C17.711 12.6782 15.934 12.6782 14.8379 13.7743C13.7418 14.8704 13.7418 16.6473 14.8379 17.7434C15.934 18.8395 17.711 18.8395 18.8071 17.7434C19.9031 16.6474 19.9031 14.8703 18.8071 13.7743Z" fill="white" stroke="#0D0D0D"/>
<line x1="0.5" y1="-0.5" x2="8.00302" y2="-0.5" transform="matrix(-0.707107 0.707107 0.707107 0.707107 24.8383 8.41003)" stroke="#0D0D0D" stroke-linecap="round"/>
<path d="M27.2091 26L27.2091 21L22.2091 26L27.2091 26Z" fill="#0D0D0D"/>
<path d="M27.2091 26L27.2091 21L22.2091 26L27.2091 26Z" fill="#0D0D0D"/>
<path d="M5.56575 11.4319L5.26304 5.12331C5.24228 4.69062 5.74409 4.43805 6.07924 4.7125L11.0059 8.74675C11.3403 9.02064 11.1931 9.56123 10.7659 9.62766L8.40811 9.99432C8.30762 10.0099 8.21429 10.0558 8.14056 10.1259L6.40955 11.7704C6.09931 12.0651 5.58626 11.8593 5.56575 11.4319Z" fill="#0D0D0D"/>
</svg>
