<svg width="30" height="30" viewBox="0 0 30 30" fill="none" xmlns="http://www.w3.org/2000/svg">
<path d="M27.209 26V21L22.209 26H27.209Z" fill="#0D0D0D"/>
<path d="M27.209 26V21L22.209 26H27.209Z" fill="#0D0D0D"/>
<path d="M8.70681 19.4992L17.7084 23.6871L24.709 15.9999L17.7078 7.49944L8.70681 19.4992Z" stroke="#0D0D0D" stroke-dasharray="1 1"/>
<rect x="18.7055" y="8.49866" width="2" height="2" transform="rotate(-180 18.7055 8.49866)" fill="white" stroke="#0D0D0D"/>
<rect x="9.70551" y="20.4987" width="2" height="2" transform="rotate(-180 9.70551 20.4987)" fill="white" stroke="#0D0D0D"/>
<rect x="25.7059" y="16.9987" width="2" height="2" transform="rotate(-180 25.7059 16.9987)" fill="white" stroke="#0D0D0D"/>
<rect x="18.7057" y="24.4985" width="2" height="2" transform="rotate(-180 18.7057 24.4985)" fill="white" stroke="#0D0D0D"/>
<path d="M5.56584 11.4319L5.26313 5.12331C5.24237 4.69062 5.74418 4.43805 6.07933 4.7125L11.006 8.74675C11.3404 9.02064 11.1932 9.56123 10.766 9.62766L8.4082 9.99432C8.30771 10.0099 8.21438 10.0558 8.14065 10.1259L6.40964 11.7704C6.0994 12.0651 5.58635 11.8593 5.56584 11.4319Z" fill="#0D0D0D"/>
</svg>
