<svg width="30" height="30" viewBox="0 0 30 30" fill="none" xmlns="http://www.w3.org/2000/svg">
<rect x="0.5" y="0.5" width="29" height="29" fill="white"/>
<rect x="0.5" y="0.5" width="29" height="29" stroke="#B3B3B3"/>
<path d="M21.5 9C21.5 9 22.1567 15.5391 18.5 19.5C14.8433 23.4609 8 22.5 8 22.5" stroke="#0D0D0D" stroke-linejoin="bevel" stroke-dasharray="1 1"/>
<path d="M21 19.5C21 20.8807 19.8807 22 18.5 22C17.1193 22 16 20.8807 16 19.5C16 18.1193 17.1193 17 18.5 17C19.8807 17 21 18.1193 21 19.5Z" fill="#0D0D0D"/>
<path d="M4.22226 10.9618L3.91955 4.65323C3.89879 4.22054 4.4006 3.96797 4.73575 4.24242L9.66237 8.27667C9.99685 8.55056 9.8496 9.09115 9.42242 9.15758L7.06462 9.52423C6.96413 9.53986 6.8708 9.58576 6.79707 9.6558L5.06606 11.3003C4.75582 11.595 4.24277 11.3892 4.22226 10.9618Z" fill="#0D0D0D"/>
<path d="M26 26V21L21 26H26Z" fill="#0D0D0D"/>
<path d="M26 26V21L21 26H26Z" fill="#0D0D0D"/>
<path d="M20 6L23 6L23 9L20 9L20 6ZM22 8L22 7L21 7L21 8L22 8Z" fill="#0D0D0D"/>
<path d="M5 21L8 21L8 24L5 24L5 21ZM7 23L7 22L6 22L6 23L7 23Z" fill="#0D0D0D"/>
</svg>
