<svg width="42" height="42" viewBox="0 0 42 42" fill="none" xmlns="http://www.w3.org/2000/svg">
<rect x="0.5" y="0.5" width="41" height="41" stroke="black"/>
<path d="M1 20.5C8 22.9932 13.214 13.2154 16.8659 9.91448C20.5177 6.6136 22.7996 6.2308 23.9761 5.66901C24.3391 5.87601 27.9897 4.95375 28.7569 6.85006C29.2291 8.01715 28.7722 9.30433 28.5664 10.1013C28.458 10.5207 28.2786 10.9529 27.9897 11.5598C27.7007 12.1666 27.2915 12.9305 26.6032 13.9107C25.9149 14.8908 24.96 16.064 23.1584 17.7188C21.3569 19.3736 18.7377 21.4744 17.0064 22.9932C15.2752 24.512 14.5112 25.385 14.0086 26.094C13.1853 27.2552 10.3603 29.7469 12.1115 32.1522C14.2202 35.0483 19.7381 30.9558 21.0229 29.8541C22.3077 28.7525 23.8439 27.3115 24.69 26.3561C28.1215 22.4814 30.3183 21.82 32.021 23.1267C32.6413 23.6027 32.6018 24.6277 32.5886 25.2875C32.575 25.9639 32.1082 26.5847 31.4911 27.3395C31.1082 27.8078 30.5192 28.3945 29.9512 28.922C28.2057 30.543 26.4105 31.9066 27.7226 33.8065C27.9105 34.0785 28.5192 34.2753 29.4394 34.482C29.9504 34.5523 40.8816 34.482 41.5 34.482" stroke="black" stroke-linecap="round"/>
</svg>
