<svg width="120" height="120" viewBox="0 0 120 120" fill="none" xmlns="http://www.w3.org/2000/svg">
<rect x="0.5" y="0.5" width="119" height="119" stroke="black"/>
<path d="M1 50.6251C1 50.6251 4 67.9319 17 57.1459C30 46.36 37.7555 37.7581 48.1893 28.327C58.6232 18.8959 65.1429 17.8022 68.5043 16.1971C69.5415 16.7885 79.9716 14.1535 82.1638 19.5715C83.5129 22.9061 82.2075 26.5837 81.6193 28.8609C81.3097 30.0592 80.7972 31.294 79.9716 33.0278C79.146 34.7617 77.9767 36.9443 76.0102 39.7447C74.0437 42.5451 71.3153 45.8971 66.1681 50.6251C61.0208 55.353 53.5374 61.3554 48.5909 65.6948C43.6445 70.0341 41.4618 72.5286 40.0256 74.5542C37.6733 77.8718 29.6018 84.991 34.6055 91.8633C40.6303 100.138 56.3956 88.4451 60.0665 85.2975C63.7374 82.1499 68.1265 78.0328 70.5441 75.303C80.3484 64.2325 86.6249 62.3428 91.4897 66.0762C93.2619 67.4363 93.1492 70.3648 93.1114 72.2499C93.0726 74.1824 91.7389 75.9562 89.9756 78.1129C88.8816 79.4508 87.1988 81.127 85.576 82.6341C80.5887 87.2657 75.4598 91.1617 79.2086 96.59C79.7453 97.3672 81.4846 97.9294 84.1138 98.5199C85.5736 98.7207 87.2886 98.7207 89.0555 98.7207H119.5" stroke="black" stroke-linecap="round"/>
</svg>
