<svg width="120" height="121" viewBox="0 0 120 121" fill="none" xmlns="http://www.w3.org/2000/svg">
<rect x="0.5" y="0.5" width="119" height="119" fill="white" stroke="black"/>
<path d="M28.2304 102.002C28.5989 101.971 28.8657 102.272 29.0275 102.537L29.2476 102.898L29.4678 103.259C29.4703 103.263 29.4731 103.267 29.4755 103.271L29.5847 103.211L29.8048 103.09C30.0735 102.943 30.3602 102.949 30.6251 103.101L30.8452 103.227L31.0653 103.355C31.1712 103.415 31.2691 103.448 31.3603 103.461L31.8005 103.519C31.8758 103.529 31.9547 103.519 32.0413 103.482L32.4815 103.294C32.659 103.218 32.8401 103.167 33.0232 103.143L33.4635 103.084C33.6093 103.065 33.7553 103.046 33.9011 103.026L34.1212 102.995L34.3414 102.964C34.4045 102.955 34.4849 102.924 34.5847 102.844L34.8048 102.668L35.0249 102.492C35.1796 102.368 35.3772 102.299 35.5916 102.356C35.789 102.409 35.938 102.553 36.0447 102.696L36.2648 102.989L36.4385 103.222L36.5537 103.122L36.7739 102.933C36.9265 102.801 37.0797 102.676 37.233 102.557L37.4531 102.387L37.6733 102.217C37.8045 102.116 37.961 102.047 38.1367 102.048C38.3124 102.048 38.4688 102.118 38.5993 102.22L38.8194 102.393L39.0396 102.564C39.1601 102.659 39.2747 102.727 39.3835 102.772L39.6036 102.865L39.8237 102.957C39.9726 103.019 40.122 103.083 40.2709 103.149L40.6862 103.331C40.6924 103.326 40.7011 103.32 40.7111 103.31L41.1513 102.87C41.2837 102.738 41.4658 102.629 41.6853 102.645C41.8989 102.661 42.0659 102.79 42.1849 102.927L42.405 103.18L42.6251 103.432C42.648 103.459 42.6664 103.471 42.6767 103.479L42.8693 103.422L43.0894 103.357C43.1921 103.326 43.3014 103.274 43.417 103.195L43.8573 102.894C44.1302 102.708 44.4367 102.693 44.7214 102.867L45.0868 103.09L45.2992 102.826L45.5193 102.552C45.6283 102.417 45.7735 102.287 45.9596 102.236C46.1088 102.196 46.2523 102.215 46.3809 102.273L46.5047 102.343L46.945 102.65C47.1097 102.765 47.2721 102.898 47.4325 103.047L47.6526 103.25L47.7721 103.361L48.1565 102.871C48.3425 102.634 48.5813 102.435 48.8753 102.399L49.3156 102.344L49.3912 102.34C49.7637 102.339 50.0188 102.674 50.1702 102.947L50.515 103.57L50.5727 103.495L50.7928 103.203C50.9819 102.953 51.2456 102.734 51.5795 102.749L51.7997 102.759L52.0198 102.77C52.3223 102.784 52.5703 102.975 52.761 103.208L52.9811 103.478L53.0249 103.532L53.1677 103.26L53.3878 102.838C53.474 102.672 53.6347 102.423 53.9028 102.365C54.2172 102.296 54.4376 102.526 54.5486 102.69L54.7687 103.015L54.9888 103.341C54.994 103.349 54.9998 103.355 55.0043 103.362L55.1367 103.298L55.3568 103.191C55.5228 103.111 55.6908 103.046 55.8598 102.997L56.3001 102.87C56.552 102.797 56.8019 102.835 57.0327 102.962L57.4652 103.2C57.4689 103.198 57.4741 103.195 57.4798 103.19L57.6999 103.016L57.92 102.842C58.0821 102.714 58.2464 102.601 58.4127 102.506L58.6328 102.379L58.853 102.252C59.0878 102.118 59.344 102.079 59.6019 102.161L59.822 102.23L60.0421 102.301C60.2294 102.36 60.4114 102.451 60.5873 102.57L60.8074 102.72L61.0275 102.868C61.1044 102.92 61.1563 102.927 61.1952 102.922L61.6354 102.859C61.9143 102.82 62.1691 102.925 62.3844 103.106L62.6045 103.292L62.7163 103.387L63.1144 102.841C63.2161 102.702 63.3473 102.568 63.5133 102.495C63.6475 102.435 63.7872 102.422 63.9226 102.455L64.0559 102.504L64.4961 102.716C64.6059 102.769 64.711 102.799 64.8117 102.811L65.2519 102.861C65.4685 102.886 65.6748 102.969 65.8676 103.097L66.0877 103.245L66.233 103.342L66.4368 103.099L66.6569 102.836C66.8473 102.608 67.0886 102.426 67.3801 102.402L67.8203 102.366C68.2092 102.333 68.4835 102.652 68.6526 102.936L68.8727 103.304L68.9966 103.512L69.0662 103.422L69.2863 103.138C69.3967 102.995 69.5554 102.851 69.7661 102.813C69.9346 102.782 70.0857 102.828 70.2107 102.909L70.3267 103.001L70.5469 103.206L70.7128 103.362L70.8788 103.206L71.0989 102.999L71.2107 102.91C71.3314 102.83 71.4771 102.78 71.6406 102.8C71.849 102.827 72.0108 102.958 72.1264 103.095L72.3465 103.357L72.4394 103.467L72.5709 103.275L72.7902 102.952C72.8924 102.802 73.0406 102.642 73.2442 102.58C73.4429 102.52 73.6264 102.573 73.7739 102.677L73.8349 102.725L74.055 102.915L74.2752 103.103C74.2779 103.106 74.2806 103.108 74.2829 103.109L74.7051 102.873C74.8393 102.798 74.975 102.713 75.1109 102.618L75.5512 102.311L75.6242 102.267C75.7982 102.175 75.9955 102.168 76.1823 102.271C76.3636 102.37 76.4919 102.549 76.5838 102.714L76.804 103.107L76.8994 103.28L76.9639 103.179L77.184 102.833C77.2851 102.674 77.4706 102.455 77.7506 102.45C78.0337 102.446 78.2234 102.662 78.3267 102.821L78.5469 103.16L78.767 103.498C78.8047 103.556 78.8337 103.586 78.8504 103.602L79.0292 103.58L79.2494 103.551C79.3011 103.545 79.3758 103.516 79.4746 103.429L79.9149 103.044C80.1142 102.869 80.3428 102.75 80.5959 102.735L80.816 102.722L81.0361 102.708C81.1857 102.699 81.3353 102.692 81.485 102.686L81.9252 102.67C82.1799 102.661 82.4153 102.757 82.6225 102.919L83.0628 103.262C83.1565 103.335 83.2281 103.357 83.2812 103.36L83.5013 103.372L83.7214 103.385C83.7143 103.384 83.7152 103.387 83.73 103.379C83.7474 103.369 83.7809 103.345 83.828 103.289L84.2683 102.768C84.4624 102.539 84.7142 102.356 85.0189 102.354L85.4592 102.352L85.5924 102.365C85.8917 102.425 86.1107 102.686 86.2597 102.932L86.4798 103.296L86.552 103.417L86.6371 103.271L86.8573 102.89C86.9502 102.73 87.074 102.565 87.2399 102.464C87.4043 102.365 87.5884 102.342 87.7653 102.408L87.8401 102.441L88.0602 102.555L88.2803 102.67C88.342 102.702 88.3877 102.703 88.4325 102.689L88.8727 102.556L89.0026 102.529C89.3008 102.497 89.5542 102.671 89.7377 102.89L89.9579 103.154L90.0327 103.245L90.1677 103.027L90.3878 102.67C90.5539 102.401 90.8436 102.09 91.2322 102.178L91.3113 102.2L91.5314 102.279L91.7515 102.356C91.9176 102.415 92.0825 102.489 92.2459 102.575L92.6862 102.81C92.8645 102.904 93.038 103.026 93.2064 103.172L93.6397 103.547L93.8332 103.423L94.0533 103.281L94.1685 103.218C94.2878 103.166 94.4186 103.147 94.5555 103.173C94.7319 103.206 94.8791 103.308 94.9957 103.427L95.2158 103.652L95.3319 103.771L95.4824 103.581L95.7025 103.299C95.8763 103.077 96.0698 102.893 96.2863 102.778L96.5065 102.662L96.7266 102.545L96.7971 102.513C96.9635 102.448 97.1399 102.457 97.3044 102.542C97.4739 102.63 97.6021 102.782 97.6991 102.934L98.0206 103.435L98.3259 102.993C98.4307 102.841 98.5941 102.669 98.8246 102.629C99.0117 102.597 99.1718 102.663 99.2966 102.76L99.4101 102.866L99.6303 103.108L99.767 103.261L100.126 102.862L100.241 102.756C100.367 102.657 100.53 102.591 100.72 102.627C100.951 102.671 101.112 102.849 101.215 103.002L101.435 103.33L101.655 103.659C101.708 103.738 101.747 103.774 101.766 103.789C101.767 103.789 101.768 103.79 101.769 103.791H102.184C102.186 103.79 102.191 103.789 102.196 103.785C102.216 103.772 102.252 103.741 102.303 103.675L102.743 103.098C102.927 102.857 103.162 102.652 103.454 102.608L103.894 102.541L103.97 102.534C104.341 102.521 104.593 102.838 104.74 103.112L105.083 103.751C105.089 103.747 105.096 103.745 105.101 103.74L105.63 103.309L105.791 103.327L105.879 103.336L105.837 103.851L105.826 103.972L106 104.266L105.604 104.589C105.438 104.725 105.222 104.849 104.979 104.831C104.705 104.811 104.508 104.621 104.388 104.396L104.192 104.029L103.995 103.662C103.973 103.622 103.955 103.595 103.941 103.576L103.788 103.6L103.567 103.633C103.566 103.633 103.509 103.644 103.399 103.788L102.959 104.365C102.77 104.612 102.513 104.826 102.189 104.825L101.969 104.824H101.749C101.402 104.823 101.143 104.565 100.964 104.298L100.601 103.757L100.512 103.857L100.291 104.102C100.168 104.24 99.992 104.365 99.7704 104.366C99.5483 104.367 99.3712 104.242 99.2468 104.104L99.0267 103.861L98.9312 103.756L98.7902 103.962L98.5701 104.281C98.4611 104.439 98.2668 104.641 97.9871 104.625C97.7171 104.61 97.5372 104.4 97.4359 104.242L97.2158 103.898L96.9957 103.554C96.9925 103.549 96.9883 103.546 96.9854 103.541L96.8684 103.604L96.6483 103.721C96.5714 103.762 96.4705 103.844 96.3508 103.997L95.9106 104.561C95.7982 104.704 95.6335 104.851 95.4136 104.879C95.1823 104.909 94.9912 104.795 94.8564 104.656L94.4273 104.217L94.258 104.328L94.0378 104.471C93.8981 104.561 93.7369 104.611 93.5641 104.592C93.394 104.573 93.2463 104.491 93.1238 104.385L92.6836 104.003C92.5586 103.895 92.4383 103.812 92.3233 103.751L91.8831 103.517C91.753 103.448 91.6244 103.391 91.497 103.345L91.2769 103.268L91.1402 103.22C91.1291 103.235 91.1153 103.253 91.1006 103.277L90.6604 103.989C90.5626 104.148 90.4019 104.345 90.1617 104.396C89.8919 104.453 89.6801 104.297 89.5494 104.141L89.1092 103.614C89.0871 103.588 89.0689 103.575 89.0585 103.566L88.8727 103.623L88.6526 103.69C88.4041 103.765 88.156 103.735 87.9243 103.615L87.7042 103.501L87.601 103.448C87.5967 103.455 87.5912 103.462 87.5864 103.471L87.1462 104.232C87.0533 104.392 86.8702 104.641 86.5761 104.652C86.2734 104.664 86.0798 104.418 85.9828 104.258L85.7627 103.894L85.5426 103.53C85.4911 103.445 85.452 103.405 85.4316 103.387H85.2425L85.0224 103.388C85.0127 103.39 84.9699 103.405 84.8925 103.497L84.6724 103.757L84.4523 104.017C84.2554 104.249 83.9952 104.434 83.6793 104.416L83.239 104.392C82.9986 104.379 82.7758 104.278 82.5761 104.123L82.356 103.952L82.1359 103.78C82.0497 103.714 81.9914 103.701 81.9527 103.703L81.5125 103.719C81.3689 103.724 81.2253 103.731 81.0817 103.74L80.8616 103.753L80.6414 103.767C80.6011 103.77 80.536 103.789 80.442 103.871L80.2218 104.064L80.0017 104.258C79.8071 104.429 79.5873 104.548 79.3457 104.579L78.9054 104.635C78.5256 104.684 78.2454 104.399 78.0671 104.125L77.7601 103.653L77.669 103.798L77.4488 104.143C77.3463 104.304 77.1424 104.543 76.8349 104.509C76.5515 104.478 76.3783 104.23 76.2881 104.068L75.8581 103.298L75.5598 103.506C75.4024 103.616 75.2442 103.715 75.0851 103.805L74.865 103.929L74.6449 104.052C74.5032 104.131 74.3451 104.168 74.1797 104.144C74.0172 104.12 73.8748 104.04 73.7549 103.937L73.5348 103.748L73.4342 103.661L73.258 103.921L73.0378 104.244C72.9331 104.397 72.7653 104.577 72.5254 104.61C72.2679 104.646 72.0679 104.496 71.9407 104.345L71.558 103.89L71.4273 104.014L71.2072 104.219C71.0781 104.34 70.9114 104.435 70.7137 104.435C70.5157 104.436 70.3478 104.342 70.2184 104.221L69.8805 103.906L69.718 104.117L69.4979 104.401C69.3747 104.56 69.163 104.739 68.8813 104.686C68.6303 104.638 68.467 104.426 68.3715 104.266L68.1513 103.898L67.9312 103.528C67.8882 103.456 67.8546 103.419 67.8358 103.4L67.6621 103.414L67.442 103.432C67.4401 103.432 67.3876 103.437 67.2846 103.56L67.0645 103.823L66.8444 104.086C66.7341 104.218 66.589 104.341 66.4067 104.389C66.2134 104.44 66.0287 104.393 65.8727 104.289L65.4325 103.996C65.3319 103.929 65.2445 103.898 65.1677 103.889L64.7274 103.839C64.5348 103.817 64.346 103.761 64.1625 103.672L63.9424 103.566L63.7979 103.496C63.7936 103.501 63.7884 103.507 63.7833 103.514L63.5632 103.816L63.3431 104.117C63.2373 104.261 63.0873 104.411 62.8856 104.465C62.6654 104.523 62.4652 104.446 62.3121 104.317L61.8719 103.946C61.7938 103.88 61.7548 103.883 61.7403 103.885L61.5202 103.917L61.3001 103.947C61.0455 103.983 60.8038 103.911 60.5873 103.764L60.147 103.466C60.0297 103.386 59.9177 103.332 59.8117 103.298L59.3715 103.159C59.3359 103.148 59.2984 103.146 59.2399 103.18L59.0198 103.307L58.7997 103.433C58.6726 103.506 58.5431 103.595 58.4119 103.699L58.1917 103.873L57.9716 104.047C57.7108 104.253 57.4006 104.306 57.0989 104.14L56.8788 104.019L56.6586 103.897C56.5962 103.862 56.5521 103.861 56.5107 103.873L56.0705 104C55.9461 104.036 55.8196 104.085 55.6922 104.147L55.4721 104.253L55.2519 104.36C55.0692 104.448 54.8734 104.446 54.6922 104.356C54.5263 104.273 54.3979 104.129 54.2992 103.983L54.0791 103.658L54.0301 103.586L53.9192 103.8L53.6991 104.221C53.6113 104.39 53.4637 104.615 53.2279 104.697C52.9377 104.797 52.7028 104.63 52.5658 104.463L52.1255 103.924C52.0405 103.82 51.9938 103.804 51.9854 103.803L51.7653 103.793L51.5563 103.781C51.5625 103.78 51.5621 103.779 51.5529 103.784C51.5363 103.795 51.5012 103.824 51.4514 103.889L51.2313 104.181L51.0112 104.472C50.8879 104.635 50.6669 104.825 50.3732 104.754C50.1214 104.694 49.9635 104.469 49.8727 104.305L49.6526 103.908L49.4325 103.511C49.4053 103.462 49.3814 103.426 49.362 103.4C49.3559 103.392 49.3495 103.386 49.3448 103.381L49.1866 103.4L48.9665 103.426C48.9652 103.426 48.9523 103.429 48.9261 103.447C48.8976 103.467 48.8565 103.505 48.8048 103.571L48.3646 104.132C48.2536 104.273 48.0953 104.417 47.8856 104.454C47.6626 104.493 47.47 104.397 47.3276 104.265L47.1075 104.061L46.8874 103.858C46.7543 103.735 46.6232 103.628 46.4944 103.538L46.1367 103.289L45.7188 103.81C45.6113 103.943 45.4707 104.069 45.2932 104.126C45.1036 104.185 44.9175 104.151 44.7558 104.052L44.3156 103.783C44.3137 103.782 44.3118 103.781 44.3104 103.78C44.3076 103.782 44.3037 103.784 44.2992 103.788L43.859 104.088C43.6813 104.21 43.4967 104.301 43.3061 104.358L43.086 104.424L42.8659 104.49C42.5194 104.593 42.2221 104.415 42.0095 104.171L41.7893 103.918L41.6354 103.742L41.5021 103.876L41.282 104.096C41.0466 104.332 40.7348 104.457 40.4015 104.31L39.9613 104.117C39.8168 104.053 39.6724 103.99 39.5279 103.93L39.3078 103.838L39.0877 103.745C38.9031 103.668 38.7239 103.56 38.5512 103.425L38.331 103.253L38.1333 103.099L37.9372 103.251L37.7171 103.42C37.577 103.528 37.4357 103.644 37.2949 103.765L36.8547 104.145C36.7049 104.274 36.508 104.356 36.2872 104.304C36.0833 104.256 35.9303 104.11 35.8229 103.966L35.6028 103.671L35.4196 103.428L35.0817 103.698C34.8881 103.853 34.6748 103.96 34.4445 103.991L34.0043 104.052C33.8571 104.072 33.7096 104.092 33.5623 104.111L33.1221 104.17C33.0117 104.185 32.8985 104.215 32.7825 104.265L32.3422 104.453C32.1354 104.541 31.9206 104.574 31.7025 104.545L31.4824 104.516L31.2623 104.488C31.0603 104.461 30.8648 104.39 30.6776 104.282L30.4574 104.155L30.2373 104.029C30.2161 104.017 30.2065 104.017 30.2055 104.017C30.2048 104.017 30.1966 104.016 30.1771 104.027L29.957 104.148L29.7369 104.268C29.5458 104.373 29.3358 104.373 29.1445 104.269C28.9743 104.176 28.8475 104.016 28.7524 103.86L28.5322 103.5L28.3121 103.139C28.2865 103.097 28.2645 103.068 28.2476 103.048C28.2461 103.046 28.2439 103.045 28.2425 103.044L28.0843 103.075L27.8641 103.119C27.7484 103.143 27.6297 103.181 27.509 103.236L27.0688 103.438C26.8017 103.561 26.5262 103.54 26.2734 103.393L26.0533 103.266L25.9845 103.226C25.9801 103.235 25.9746 103.243 25.9699 103.253L25.5297 104.15C25.4469 104.318 25.2918 104.577 25.0258 104.648C24.7009 104.735 24.472 104.494 24.3611 104.327L23.9209 103.665C23.7998 103.483 23.7121 103.418 23.6681 103.398L23.448 103.298L23.2459 103.207C23.24 103.212 23.2317 103.217 23.2218 103.226L23.0017 103.433L22.7816 103.639C22.6282 103.783 22.4742 103.919 22.3199 104.047L21.8796 104.41C21.6613 104.591 21.4028 104.691 21.1221 104.643L20.6819 104.569C20.6212 104.558 20.5562 104.566 20.4781 104.605L20.0378 104.825C19.845 104.921 19.6439 104.976 19.4377 104.983L18.9974 105C18.6341 105.012 18.3682 104.731 18.1926 104.458L17.7558 103.776L17.6457 103.844L17.4256 103.977C17.1757 104.129 16.9001 104.157 16.6303 104.04L16.4101 103.944L16.2218 103.861C16.2155 103.867 16.2073 103.874 16.1978 103.884L15.9776 104.118L15.7575 104.352C15.5791 104.541 15.3795 104.693 15.1574 104.767L14.951 104.836L14.7455 104.905C14.459 105 14.1866 104.915 13.9604 104.738L13.5305 104.403C13.5084 104.386 13.488 104.373 13.4712 104.361L13.4282 104.366L13.4248 104.326C13.4147 104.32 13.4071 104.313 13.4007 104.309C13.3891 104.302 13.3944 104.306 13.411 104.312C13.4139 104.313 13.4186 104.314 13.4239 104.315L13.3861 103.851L13.0353 103.887L13.0344 103.873L13 103.424L13.3749 103.324L13.4187 103.312L13.5125 103.299C13.5999 103.297 13.6666 103.324 13.6862 103.331C13.7314 103.349 13.7726 103.371 13.804 103.39C13.8685 103.429 13.9415 103.483 14.0181 103.542L14.448 103.877C14.4812 103.903 14.4997 103.909 14.5039 103.91C14.5059 103.91 14.5059 103.911 14.5047 103.911L14.7111 103.842L14.9166 103.773C14.9686 103.756 15.0528 103.707 15.1677 103.585L15.3878 103.352L15.6079 103.117C15.8384 102.873 16.153 102.73 16.4961 102.879L16.9364 103.071C16.9599 103.081 16.9781 103.085 17.0215 103.059L17.4617 102.792C17.6437 102.682 17.8517 102.664 18.0499 102.758C18.2265 102.842 18.3583 102.998 18.4557 103.15L18.6758 103.493L18.896 103.837C18.9449 103.913 18.9813 103.948 19 103.964L19.4119 103.951C19.499 103.948 19.5917 103.925 19.6922 103.874L20.1324 103.654C20.3477 103.547 20.5763 103.505 20.8091 103.545L21.0292 103.584L21.2494 103.621C21.2621 103.623 21.2973 103.627 21.3723 103.565L21.8126 103.202C21.9515 103.087 22.0914 102.964 22.2313 102.833L22.6715 102.419C22.8826 102.221 23.1462 102.116 23.4256 102.191L23.546 102.234L23.9862 102.434C24.2358 102.548 24.4424 102.771 24.6148 103.03L24.8349 103.36L24.8719 103.417L24.9862 103.185L25.2064 102.737C25.2937 102.559 25.4118 102.371 25.5761 102.251C25.7459 102.128 25.9471 102.093 26.141 102.171L26.2236 102.211L26.6638 102.467C26.7045 102.491 26.7226 102.488 26.7489 102.476L27.1892 102.274C27.3619 102.195 27.5378 102.137 27.7154 102.101L28.1556 102.012L28.2304 102.002Z" fill="white"/>
<path d="M106.552 120L107.901 112.654L118.966 76L94 78.5H79.5L47.5 71L52.5 120M118.966 114.613L107.901 112.654" stroke="black" stroke-dasharray="2 2"/>
<path d="M0.517578 15.6915L21.7245 18.14L69 15.6915L103 1" stroke="black" stroke-dasharray="2 2"/>
<path d="M23 18L30 79" stroke="black" stroke-dasharray="2 2"/>
<path d="M68.2754 16L85 45.5L99 77.5" stroke="black" stroke-dasharray="2 2"/>
<path d="M1 79.5H30.5L50 93.5" stroke="black" stroke-dasharray="2 2"/>
</svg>
