<svg width="121" height="121" viewBox="0 0 121 121" fill="none" xmlns="http://www.w3.org/2000/svg">
<rect x="0.853516" y="0.5" width="119" height="119" fill="white" stroke="black"/>
<path d="M28.584 102.002C28.9524 101.971 29.2192 102.272 29.381 102.537L29.6012 102.898L29.8213 103.259C29.8239 103.263 29.8266 103.267 29.829 103.271L29.9382 103.211L30.1583 103.09C30.427 102.943 30.7137 102.949 30.9786 103.101L31.1987 103.227L31.4189 103.355C31.5247 103.415 31.6226 103.448 31.7138 103.461L32.154 103.519C32.2294 103.529 32.3082 103.519 32.3948 103.482L32.835 103.294C33.0125 103.218 33.1936 103.167 33.3767 103.143L33.817 103.084C33.9628 103.065 34.1088 103.046 34.2546 103.026L34.4748 102.995L34.6949 102.964C34.758 102.955 34.8385 102.924 34.9382 102.844L35.1583 102.668L35.3785 102.492C35.5332 102.368 35.7307 102.299 35.9451 102.356C36.1425 102.409 36.2915 102.553 36.3982 102.696L36.6183 102.989L36.792 103.222L36.9073 103.122L37.1274 102.933C37.28 102.801 37.4332 102.676 37.5865 102.557L37.8067 102.387L38.0268 102.217C38.158 102.116 38.3145 102.047 38.4902 102.048C38.6659 102.048 38.8223 102.118 38.9528 102.22L39.1729 102.393L39.3931 102.564C39.5137 102.659 39.6282 102.727 39.737 102.772L39.9571 102.865L40.1772 102.957C40.3261 103.019 40.4755 103.083 40.6244 103.149L41.0397 103.331C41.046 103.326 41.0546 103.32 41.0646 103.31L41.5048 102.87C41.6372 102.738 41.8194 102.629 42.0388 102.645C42.2524 102.661 42.4194 102.79 42.5384 102.927L42.7585 103.18L42.9786 103.432C43.0015 103.459 43.0199 103.471 43.0302 103.479L43.2228 103.422L43.4429 103.357C43.5456 103.326 43.6549 103.274 43.7705 103.195L44.2108 102.894C44.4837 102.708 44.7902 102.693 45.0749 102.867L45.4404 103.09L45.6527 102.826L45.8729 102.552C45.9818 102.417 46.127 102.287 46.3131 102.236C46.4623 102.196 46.6058 102.215 46.7344 102.273L46.8582 102.343L47.2985 102.65C47.4632 102.765 47.6256 102.898 47.786 103.047L48.0061 103.25L48.1257 103.361L48.51 102.871C48.696 102.634 48.9348 102.435 49.2288 102.399L49.6691 102.344L49.7447 102.34C50.1172 102.339 50.3724 102.674 50.5238 102.947L50.8686 103.57L50.9262 103.495L51.1463 103.203C51.3354 102.953 51.5991 102.734 51.9331 102.749L52.1532 102.759L52.3733 102.77C52.6758 102.784 52.9238 102.975 53.1145 103.208L53.3346 103.478L53.3785 103.532L53.5212 103.26L53.7413 102.838C53.8276 102.672 53.9882 102.423 54.2564 102.365C54.5707 102.296 54.7911 102.526 54.9021 102.69L55.1222 103.015L55.3423 103.341C55.3475 103.349 55.3533 103.355 55.3578 103.362L55.4902 103.298L55.7104 103.191C55.8764 103.111 56.0443 103.046 56.2134 102.997L56.6536 102.87C56.9055 102.797 57.1554 102.835 57.3862 102.962L57.8187 103.2C57.8224 103.198 57.8276 103.195 57.8333 103.19L58.0534 103.016L58.2736 102.842C58.4357 102.714 58.5999 102.601 58.7662 102.506L58.9864 102.379L59.2065 102.252C59.4413 102.118 59.6976 102.079 59.9554 102.161L60.1755 102.23L60.3956 102.301C60.5829 102.36 60.7649 102.451 60.9408 102.57L61.1609 102.72L61.381 102.868C61.4579 102.92 61.5098 102.927 61.5487 102.922L61.9889 102.859C62.2679 102.82 62.5226 102.925 62.7379 103.106L62.958 103.292L63.0698 103.387L63.4679 102.841C63.5696 102.702 63.7008 102.568 63.8668 102.495C64.001 102.435 64.1407 102.422 64.2761 102.455L64.4094 102.504L64.8496 102.716C64.9594 102.769 65.0646 102.799 65.1652 102.811L65.6055 102.861C65.8221 102.886 66.0283 102.969 66.2211 103.097L66.4412 103.245L66.5865 103.342L66.7903 103.099L67.0104 102.836C67.2008 102.608 67.4421 102.426 67.7336 102.402L68.1738 102.366C68.5627 102.333 68.837 102.652 69.0061 102.936L69.2263 103.304L69.3501 103.512L69.4197 103.422L69.6398 103.138C69.7502 102.995 69.9089 102.851 70.1196 102.813C70.2881 102.782 70.4392 102.828 70.5642 102.909L70.6803 103.001L70.9004 103.206L71.0663 103.362L71.2323 103.206L71.4524 102.999L71.5642 102.91C71.6849 102.83 71.8306 102.78 71.9941 102.8C72.2026 102.827 72.3643 102.958 72.4799 103.095L72.7 103.357L72.7929 103.467L72.9245 103.275L73.1437 102.952C73.2459 102.802 73.3941 102.642 73.5977 102.58C73.7964 102.52 73.9799 102.573 74.1274 102.677L74.1884 102.725L74.4085 102.915L74.6287 103.103C74.6314 103.106 74.6341 103.108 74.6364 103.109L75.0586 102.873C75.1929 102.798 75.3285 102.713 75.4644 102.618L75.9047 102.311L75.9778 102.267C76.1517 102.175 76.349 102.168 76.5358 102.271C76.7171 102.37 76.8454 102.549 76.9374 102.714L77.1575 103.107L77.2529 103.28L77.3174 103.179L77.5375 102.833C77.6386 102.674 77.8241 102.455 78.1042 102.45C78.3872 102.446 78.5769 102.662 78.6803 102.821L78.9004 103.16L79.1205 103.498C79.1582 103.556 79.1872 103.586 79.2039 103.602L79.3828 103.58L79.6029 103.551C79.6547 103.545 79.7293 103.516 79.8282 103.429L80.2684 103.044C80.4677 102.869 80.6963 102.75 80.9494 102.735L81.1695 102.722L81.3896 102.708C81.5392 102.699 81.6889 102.692 81.8385 102.686L82.2787 102.67C82.5335 102.661 82.7688 102.757 82.976 102.919L83.4163 103.262C83.51 103.335 83.5816 103.357 83.6347 103.36L83.8548 103.372L84.0749 103.385C84.0678 103.384 84.0687 103.387 84.0835 103.379C84.101 103.369 84.1344 103.345 84.1815 103.289L84.6218 102.768C84.8159 102.539 85.0677 102.356 85.3724 102.354L85.8127 102.352L85.946 102.365C86.2452 102.425 86.4642 102.686 86.6132 102.932L86.8333 103.296L86.9055 103.417L86.9907 103.271L87.2108 102.89C87.3037 102.73 87.4275 102.565 87.5934 102.464C87.7578 102.365 87.9419 102.342 88.1188 102.408L88.1936 102.441L88.4137 102.555L88.6338 102.67C88.6955 102.702 88.7412 102.703 88.786 102.689L89.2263 102.556L89.3561 102.529C89.6543 102.497 89.9077 102.671 90.0913 102.89L90.3114 103.154L90.3862 103.245L90.5212 103.027L90.7413 102.67C90.9074 102.401 91.1971 102.09 91.5857 102.178L91.6648 102.2L91.8849 102.279L92.105 102.356C92.2711 102.415 92.436 102.489 92.5994 102.575L93.0397 102.81C93.218 102.904 93.3915 103.026 93.5599 103.172L93.9932 103.547L94.1867 103.423L94.4068 103.281L94.522 103.218C94.6413 103.166 94.7722 103.147 94.909 103.173C95.0854 103.206 95.2326 103.308 95.3492 103.427L95.5693 103.652L95.6854 103.771L95.8359 103.581L96.056 103.299C96.2298 103.077 96.4233 102.893 96.6398 102.778L96.86 102.662L97.0801 102.545L97.1506 102.513C97.317 102.448 97.4934 102.457 97.6579 102.542C97.8274 102.63 97.9556 102.782 98.0526 102.934L98.3742 103.435L98.6794 102.993C98.7842 102.841 98.9477 102.669 99.1781 102.629C99.3653 102.597 99.5253 102.663 99.6502 102.76L99.7637 102.866L99.9838 103.108L100.121 103.261L100.48 102.862L100.594 102.756C100.721 102.657 100.883 102.591 101.073 102.627C101.304 102.671 101.466 102.849 101.568 103.002L101.789 103.33L102.009 103.659C102.062 103.738 102.1 103.774 102.12 103.789C102.121 103.789 102.121 103.79 102.122 103.791H102.538C102.54 103.79 102.544 103.789 102.55 103.785C102.569 103.772 102.606 103.741 102.656 103.675L103.096 103.098C103.28 102.857 103.516 102.652 103.808 102.608L104.248 102.541L104.323 102.534C104.694 102.521 104.947 102.838 105.094 103.112L105.437 103.751C105.442 103.747 105.449 103.745 105.455 103.74L105.984 103.309L106.145 103.327L106.232 103.336L106.19 103.851L106.18 103.972L106.354 104.266L105.958 104.589C105.792 104.725 105.576 104.849 105.333 104.831C105.058 104.811 104.862 104.621 104.741 104.396L104.545 104.029L104.348 103.662C104.327 103.622 104.308 103.595 104.294 103.576L104.141 103.6L103.921 103.633C103.92 103.633 103.862 103.644 103.752 103.788L103.312 104.365C103.124 104.612 102.867 104.826 102.543 104.825L102.323 104.824H102.102C101.756 104.823 101.496 104.565 101.317 104.298L100.955 103.757L100.865 103.857L100.645 104.102C100.521 104.24 100.346 104.365 100.124 104.366C99.9018 104.367 99.7247 104.242 99.6003 104.104L99.3802 103.861L99.2847 103.756L99.1437 103.962L98.9236 104.281C98.8146 104.439 98.6203 104.641 98.3406 104.625C98.0707 104.61 97.8907 104.4 97.7895 104.242L97.5693 103.898L97.3492 103.554C97.346 103.549 97.3418 103.546 97.3389 103.541L97.222 103.604L97.0018 103.721C96.9249 103.762 96.824 103.844 96.7043 103.997L96.2641 104.561C96.1517 104.704 95.987 104.851 95.7671 104.879C95.5358 104.909 95.3448 104.795 95.2099 104.656L94.7809 104.217L94.6115 104.328L94.3914 104.471C94.2517 104.561 94.0904 104.611 93.9176 104.592C93.7476 104.573 93.5999 104.491 93.4773 104.385L93.0371 104.003C92.9121 103.895 92.7919 103.812 92.6768 103.751L92.2366 103.517C92.1065 103.448 91.9779 103.391 91.8505 103.345L91.6304 103.268L91.4937 103.22C91.4826 103.235 91.4689 103.253 91.4541 103.277L91.0139 103.989C90.9161 104.148 90.7555 104.345 90.5152 104.396C90.2454 104.453 90.0336 104.297 89.903 104.141L89.4627 103.614C89.4406 103.588 89.4225 103.575 89.412 103.566L89.2263 103.623L89.0061 103.69C88.7576 103.765 88.5095 103.735 88.2779 103.615L88.0577 103.501L87.9545 103.448C87.9502 103.455 87.9447 103.462 87.9399 103.471L87.4997 104.232C87.4068 104.392 87.2237 104.641 86.9296 104.652C86.6269 104.664 86.4334 104.418 86.3363 104.258L86.1162 103.894L85.8961 103.53C85.8446 103.445 85.8056 103.405 85.7852 103.387H85.596L85.3759 103.388C85.3662 103.39 85.3234 103.405 85.246 103.497L85.0259 103.757L84.8058 104.017C84.609 104.249 84.3487 104.434 84.0328 104.416L83.5926 104.392C83.3521 104.379 83.1293 104.278 82.9296 104.123L82.7095 103.952L82.4894 103.78C82.4033 103.714 82.3449 103.701 82.3062 103.703L81.866 103.719C81.7224 103.724 81.5788 103.731 81.4352 103.74L81.2151 103.753L80.995 103.767C80.9547 103.77 80.8895 103.789 80.7955 103.871L80.5754 104.064L80.3552 104.258C80.1606 104.429 79.9408 104.548 79.6992 104.579L79.2589 104.635C78.8791 104.684 78.5989 104.399 78.4206 104.125L78.1136 103.653L78.0225 103.798L77.8024 104.143C77.6998 104.304 77.496 104.543 77.1884 104.509C76.9051 104.478 76.7318 104.23 76.6416 104.068L76.2116 103.298L75.9133 103.506C75.7559 103.616 75.5977 103.715 75.4386 103.805L75.2185 103.929L74.9984 104.052C74.8567 104.131 74.6986 104.168 74.5332 104.144C74.3707 104.12 74.2283 104.04 74.1085 103.937L73.8883 103.748L73.7877 103.661L73.6115 103.921L73.3914 104.244C73.2867 104.397 73.1188 104.577 72.8789 104.61C72.6214 104.646 72.4214 104.496 72.2942 104.345L71.9116 103.89L71.7809 104.014L71.5607 104.219C71.4316 104.34 71.2649 104.435 71.0672 104.435C70.8693 104.436 70.7013 104.342 70.5719 104.221L70.234 103.906L70.0715 104.117L69.8514 104.401C69.7282 104.56 69.5165 104.739 69.2349 104.686C68.9838 104.638 68.8205 104.426 68.725 104.266L68.5049 103.898L68.2847 103.528C68.2417 103.456 68.2081 103.419 68.1893 103.4L68.0156 103.414L67.7955 103.432C67.7936 103.432 67.7411 103.437 67.6381 103.56L67.418 103.823L67.1979 104.086C67.0876 104.218 66.9426 104.341 66.7602 104.389C66.5669 104.44 66.3822 104.393 66.2263 104.289L65.786 103.996C65.6854 103.929 65.598 103.898 65.5212 103.889L65.0809 103.839C64.8883 103.817 64.6995 103.761 64.516 103.672L64.2959 103.566L64.1515 103.496C64.1471 103.501 64.1419 103.507 64.1368 103.514L63.9167 103.816L63.6966 104.117C63.5909 104.261 63.4409 104.411 63.2392 104.465C63.0189 104.523 62.8188 104.446 62.6656 104.317L62.2254 103.946C62.1473 103.88 62.1083 103.883 62.0938 103.885L61.8737 103.917L61.6536 103.947C61.399 103.983 61.1574 103.911 60.9408 103.764L60.5006 103.466C60.3832 103.386 60.2712 103.332 60.1652 103.298L59.725 103.159C59.6894 103.148 59.6519 103.146 59.5934 103.18L59.3733 103.307L59.1532 103.433C59.0261 103.506 58.8967 103.595 58.7654 103.699L58.5453 103.873L58.3251 104.047C58.0643 104.253 57.7541 104.306 57.4524 104.14L57.2323 104.019L57.0122 103.897C56.9498 103.862 56.9056 103.861 56.8643 103.873L56.424 104C56.2996 104.036 56.1731 104.085 56.0457 104.147L55.8256 104.253L55.6055 104.36C55.4227 104.448 55.2269 104.446 55.0457 104.356C54.8798 104.273 54.7514 104.129 54.6527 103.983L54.4326 103.658L54.3836 103.586L54.2727 103.8L54.0526 104.221C53.9648 104.39 53.8172 104.615 53.5814 104.697C53.2912 104.797 53.0563 104.63 52.9193 104.463L52.4791 103.924C52.394 103.82 52.3473 103.804 52.3389 103.803L52.1188 103.793L51.9098 103.781C51.916 103.78 51.9156 103.779 51.9064 103.784C51.8898 103.795 51.8548 103.824 51.8049 103.889L51.5848 104.181L51.3647 104.472C51.2414 104.635 51.0205 104.825 50.7267 104.754C50.475 104.694 50.317 104.469 50.2263 104.305L50.0061 103.908L49.786 103.511C49.7588 103.462 49.735 103.426 49.7155 103.4C49.7094 103.392 49.703 103.386 49.6983 103.381L49.5401 103.4L49.32 103.426C49.3187 103.426 49.3059 103.429 49.2796 103.447C49.2511 103.467 49.2101 103.505 49.1583 103.571L48.7181 104.132C48.6071 104.273 48.4488 104.417 48.2392 104.454C48.0161 104.493 47.8235 104.397 47.6811 104.265L47.461 104.061L47.2409 103.858C47.1078 103.735 46.9767 103.628 46.8479 103.538L46.4902 103.289L46.0723 103.81C45.9649 103.943 45.8242 104.069 45.6467 104.126C45.4571 104.185 45.271 104.151 45.1093 104.052L44.6691 103.783C44.6672 103.782 44.6653 103.781 44.6639 103.78C44.6611 103.782 44.6572 103.784 44.6527 103.788L44.2125 104.088C44.0348 104.21 43.8502 104.301 43.6596 104.358L43.4395 104.424L43.2194 104.49C42.8729 104.593 42.5756 104.415 42.363 104.171L42.1429 103.918L41.9889 103.742L41.8557 103.876L41.6355 104.096C41.4001 104.332 41.0883 104.457 40.7551 104.31L40.3148 104.117C40.1703 104.053 40.0259 103.99 39.8815 103.93L39.6613 103.838L39.4412 103.745C39.2566 103.668 39.0775 103.56 38.9047 103.425L38.6846 103.253L38.4868 103.099L38.2907 103.251L38.0706 103.42C37.9305 103.528 37.7893 103.644 37.6484 103.765L37.2082 104.145C37.0584 104.274 36.8615 104.356 36.6407 104.304C36.4368 104.256 36.2839 104.11 36.1764 103.966L35.9563 103.671L35.7731 103.428L35.4352 103.698C35.2416 103.853 35.0283 103.96 34.7981 103.991L34.3578 104.052C34.2106 104.072 34.0631 104.092 33.9159 104.111L33.4756 104.17C33.3653 104.185 33.252 104.215 33.136 104.265L32.6957 104.453C32.4889 104.541 32.2741 104.574 32.056 104.545L31.8359 104.516L31.6158 104.488C31.4138 104.461 31.2183 104.39 31.0311 104.282L30.811 104.155L30.5908 104.029C30.5696 104.017 30.56 104.017 30.559 104.017C30.5583 104.017 30.5501 104.016 30.5306 104.027L30.3105 104.148L30.0904 104.268C29.8993 104.373 29.6893 104.373 29.498 104.269C29.3278 104.176 29.201 104.016 29.1059 103.86L28.8858 103.5L28.6656 103.139C28.6401 103.097 28.618 103.068 28.6012 103.048C28.5996 103.046 28.5974 103.045 28.596 103.044L28.4378 103.075L28.2177 103.119C28.1019 103.143 27.9832 103.181 27.8625 103.236L27.4223 103.438C27.1552 103.561 26.8797 103.54 26.6269 103.393L26.4068 103.266L26.338 103.226C26.3337 103.235 26.3281 103.243 26.3234 103.253L25.8832 104.15C25.8004 104.318 25.6453 104.577 25.3793 104.648C25.0545 104.735 24.8255 104.494 24.7147 104.327L24.2744 103.665C24.1533 103.483 24.0656 103.418 24.0216 103.398L23.8015 103.298L23.5994 103.207C23.5935 103.212 23.5852 103.217 23.5754 103.226L23.3552 103.433L23.1351 103.639C22.9817 103.783 22.8278 103.919 22.6734 104.047L22.2331 104.41C22.0148 104.591 21.7564 104.691 21.4756 104.643L21.0354 104.569C20.9748 104.558 20.9097 104.566 20.8316 104.605L20.3913 104.825C20.1985 104.921 19.9974 104.976 19.7912 104.983L19.3509 105C18.9876 105.012 18.7217 104.731 18.5461 104.458L18.1093 103.776L17.9993 103.844L17.7791 103.977C17.5292 104.129 17.2537 104.157 16.9838 104.04L16.7637 103.944L16.5754 103.861C16.569 103.867 16.5608 103.874 16.5513 103.884L16.3312 104.118L16.111 104.352C15.9326 104.541 15.733 104.693 15.5109 104.767L15.3045 104.836L15.099 104.905C14.8125 105 14.5401 104.915 14.314 104.738L13.884 104.403C13.8619 104.386 13.8415 104.373 13.8247 104.361L13.7817 104.366L13.7783 104.326C13.7682 104.32 13.7606 104.313 13.7542 104.309C13.7427 104.302 13.7479 104.306 13.7645 104.312C13.7674 104.313 13.7721 104.314 13.7774 104.315L13.7396 103.851L13.3888 103.887L13.3879 103.873L13.3535 103.424L13.7284 103.324L13.7723 103.312L13.866 103.299C13.9534 103.297 14.0201 103.324 14.0397 103.331C14.085 103.349 14.1261 103.371 14.1575 103.39C14.222 103.429 14.295 103.483 14.3716 103.542L14.8015 103.877C14.8347 103.903 14.8532 103.909 14.8574 103.91C14.8594 103.91 14.8594 103.911 14.8582 103.911L15.0646 103.842L15.2701 103.773C15.3221 103.756 15.4063 103.707 15.5212 103.585L15.7413 103.352L15.9614 103.117C16.1919 102.873 16.5065 102.73 16.8496 102.879L17.2899 103.071C17.3134 103.081 17.3317 103.085 17.375 103.059L17.8153 102.792C17.9972 102.682 18.2052 102.664 18.4034 102.758C18.58 102.842 18.7118 102.998 18.8092 103.15L19.0294 103.493L19.2495 103.837C19.2984 103.913 19.3349 103.948 19.3535 103.964L19.7654 103.951C19.8525 103.948 19.9452 103.925 20.0457 103.874L20.4859 103.654C20.7012 103.547 20.9298 103.505 21.1626 103.545L21.3828 103.584L21.6029 103.621C21.6156 103.623 21.6508 103.627 21.7258 103.565L22.1661 103.202C22.305 103.087 22.4449 102.964 22.5848 102.833L23.0251 102.419C23.2361 102.221 23.4997 102.116 23.7791 102.191L23.8995 102.234L24.3398 102.434C24.5893 102.548 24.7959 102.771 24.9683 103.03L25.1884 103.36L25.2254 103.417L25.3398 103.185L25.5599 102.737C25.6473 102.559 25.7653 102.371 25.9296 102.251C26.0995 102.128 26.3006 102.093 26.4945 102.171L26.5771 102.211L27.0173 102.467C27.058 102.491 27.0761 102.488 27.1024 102.476L27.5427 102.274C27.7155 102.195 27.8913 102.137 28.0689 102.101L28.5091 102.012L28.584 102.002Z" fill="white"/>
<path d="M106.905 120L108.255 112.654L113.112 86.2097L62.4225 67.6006L53.1121 47.0327L0.353516 99.9216M119.319 114.613L108.255 112.654" stroke="black" stroke-dasharray="2 2"/>
<path d="M0.871094 15.6914L22.078 18.1399L86.2159 6.38683L89.8366 1" stroke="black" stroke-dasharray="2 2"/>
<path d="M10.6992 17.6504L37.0785 63.1936" stroke="black" stroke-dasharray="2 2"/>
<path d="M31.9048 16.1812L26.7324 24.5063L120.353 74.9466" stroke="black" stroke-dasharray="2 2"/>
<path d="M68.6289 9.81494L86.7324 15.6915L89.3186 18.6298V22.5475L119.319 15.6915" stroke="black" stroke-dasharray="2 2"/>
<path d="M59.4186 14L60.8387 14.5738L61.5014 15.2431L62.0695 16.295L62.4482 18.3032L62.3535 35.1333L62.0695 44.409V50.3377L62.2588 50.9115L62.6375 51.3896L63.5843 51.7721L64.6257 51.5809L65.1938 51.0071L65.4778 50.4334L68.9807 39.6277L73.3358 27.1963L73.8091 25.4751L74.9452 23.1801L75.608 22.5107L76.8387 21.9369H78.3535L79.5843 22.5107L80.247 23.1801L80.6257 23.9451L80.8151 24.8057V26.527L79.1109 33.3164L77.5961 38.5758V38.9583L73.5251 53.4934V55.2147L73.9038 56.0753L74.6612 56.649L75.5133 56.7447L76.46 56.4578L77.2174 55.6928L82.9926 47.8515L88.2943 39.9145L89.6198 38.1933L90.2825 37.7152L91.3239 37.3327H92.176L92.744 37.5239L93.8801 38.3845L94.2588 39.2452L94.3535 40.3927L93.9748 42.0183L92.3654 45.174L86.9689 55.0234L83.5606 60.5697L82.3298 63.2472L81.2884 67.1679L79.8683 75.7742L78.2588 82.6592L76.744 86.7711L75.1346 89.8311L72.5784 93.5605L72.105 94.6124L71.6316 96.238L71.4423 97.5768L71.3476 107.713L70.7796 108H45.2174L44.8387 107.904L44.5547 107.522L44.46 98.3418L44.0813 96.238L43.5133 94.8037L42.2825 93.3693L40.105 91.7436L30.5429 81.8942L29.0281 79.7904L25.4304 73.2879L22.9689 69.7497L21.5488 68.0285L19.6553 66.116L17.7618 64.586L14.8269 62.5778L14.3535 61.6216V60.6653L14.7322 59.7091L15.4896 58.8484L16.6257 58.179L17.4778 57.8922L18.5192 57.7009H20.8861L22.4009 57.9878L24.673 58.9441L26.8506 60.4741L29.2174 62.7691L31.8683 65.9247L33.7618 67.8372L34.8979 68.6979L36.318 69.4629L37.7381 69.8454L39.3476 69.7497L39.9156 69.4629L40.389 68.9847L40.9571 67.7416L41.6198 62.9603L41.8091 60.7609V57.3184L41.6198 55.5972L40.7677 51.6765L38.5902 43.9308L34.0458 26.6226L33.8565 25.5707V23.7538L34.1405 22.7976L35.0872 21.5544L36.2233 20.885L37.2648 20.5982H38.2115L39.4423 21.0763L40.389 21.9369L41.4304 23.8494L42.2825 26.8138L45.9748 37.8108L49.8565 50.0509L50.5192 51.0071L51.3713 51.294L52.1287 51.1984L52.602 50.9115L52.8861 50.529L53.1701 49.2859L53.5488 37.5239L54.8742 17.7294L55.6316 15.7213L56.5784 14.6694L57.8091 14.0956L59.4186 14Z" fill="white" stroke="black" stroke-linecap="round" stroke-linejoin="round"/>
</svg>
