<svg width="42" height="42" viewBox="0 0 42 42" fill="none" xmlns="http://www.w3.org/2000/svg">
<rect x="0.5" y="0.5" width="41" height="41" fill="white" stroke="black"/>
<path d="M0.5 34.5L18.4655 16.4614L21.7241 23.6602L39.4655 30.1734L37.7654 39.4289M36 41.5L37.7654 39.4289M41.6379 40.1145L37.7654 39.4289" stroke="black" stroke-dasharray="1 1"/>
<path d="M21 7.16656L26.2095 7.99987L41.5 4" stroke="black" stroke-dasharray="1 1"/>
<path d="M1 5L12.8539 22.1174" stroke="black" stroke-dasharray="1 1"/>
<path d="M6.5 0.5L11 2.91379L41 18.5" stroke="black" stroke-dasharray="1 1"/>
<path d="M21.6732 3.8999L22.1702 4.10072L22.4022 4.335L22.601 4.70316L22.7335 5.40601L22.7004 11.2965L22.601 14.543V16.6181L22.6673 16.8189L22.7998 16.9863L23.1312 17.1201L23.4957 17.0532L23.6945 16.8524L23.7939 16.6516L25.0199 12.8696L26.5442 8.51862L26.7099 7.91618L27.1075 7.11292L27.3394 6.87864L27.7702 6.67783H28.3004L28.7312 6.87864L28.9631 7.11292L29.0957 7.38068L29.1619 7.6819V8.28434L28.5655 10.6606L28.0353 12.5014V12.6353L26.6105 17.7226V18.325L26.743 18.6263L27.0081 18.8271L27.3063 18.8605L27.6377 18.7601L27.9028 18.4924L29.9241 15.7479L31.7797 12.97L32.2436 12.3676L32.4755 12.2002L32.84 12.0663H33.1383L33.3371 12.1333L33.7347 12.4345L33.8673 12.7357L33.9004 13.1373L33.7678 13.7063L33.2045 14.8108L31.3158 18.2581L30.1229 20.1993L29.6921 21.1364L29.3276 22.5087L28.8306 25.5209L28.2673 27.9306L27.7371 29.3698L27.1738 30.4408L26.2791 31.7461L26.1134 32.1142L25.9477 32.6832L25.8815 33.1518L25.8483 36.6995L25.6495 36.7999H16.7028L16.5702 36.7664L16.4708 36.6326L16.4377 33.4195L16.3051 32.6832L16.1063 32.1812L15.6755 31.6791L14.9134 31.1102L11.5667 27.6629L11.0365 26.9266L9.77731 24.6507L8.91578 23.4123L8.41873 22.8099L7.75601 22.1405L7.09329 21.605L6.06607 20.9021L5.90039 20.5675V20.2328L6.03294 19.8981L6.29802 19.5969L6.69566 19.3626L6.99388 19.2622L7.35838 19.1952H8.18678L8.71696 19.2956L9.51223 19.6303L10.2744 20.1658L11.1028 20.9691L12.0306 22.0736L12.6933 22.7429L13.0909 23.0442L13.588 23.3119L14.085 23.4458L14.6483 23.4123L14.8471 23.3119L15.0128 23.1446L15.2116 22.7095L15.4436 21.036L15.5099 20.2662V19.0613L15.4436 18.4589L15.1454 17.0867L14.3832 14.3757L12.7927 8.31781L12.7264 7.94965V7.31374L12.8258 6.97905L13.1572 6.54395L13.5548 6.30967L13.9193 6.20926H14.2507L14.6815 6.37661L15.0128 6.67783L15.3773 7.34721L15.6755 8.38474L16.9678 12.2337L18.3264 16.5177L18.5584 16.8524L18.8566 16.9528L19.1217 16.9193L19.2874 16.8189L19.3868 16.685L19.4862 16.25L19.6187 12.1333L20.0826 5.20519L20.3477 4.50234L20.6791 4.13419L21.1099 3.93337L21.6732 3.8999Z" fill="white" stroke="black" stroke-linecap="round" stroke-linejoin="round"/>
</svg>
